<?xml version="1.0" encoding="utf-8"?>
<!-- Generator: Adobe Illustrator 23.0.1, SVG Export Plug-In . SVG Version: 6.00 Build 0)  -->
<svg version="1.1" id="Layer_1" xmlns="http://www.w3.org/2000/svg" xmlns:xlink="http://www.w3.org/1999/xlink" x="0px" y="0px"
	 viewBox="0 0 891.2 540.3" style="enable-background:new 0 0 891.2 540.3;" xml:space="preserve">
<style type="text/css">
	.st0{fill:#FFFFFF;}
	.st1{fill:#EC1C24;}
</style>
<g>
	<g id="Layer_1-2">
		<path class="st0" d="M367.9,14.9L588,235.1H367.9V14.9z"/>
		<path class="st0" d="M140,84.1c24.5,26.7,34.2,57.9,25.1,93.2c-10,39-35.6,63.8-74.9,72.6C55.8,257.6,25.6,247.7,0,224L140,84.1z"
			/>
		<path class="st0" d="M41.2,168.5C16.3,141.3,6.8,109.7,16.3,74C26.5,35.9,51.8,11.6,90.2,2.7c34.6-8,65,1.8,90.9,25.8
			C134.4,75.3,88,121.6,41.2,168.5z"/>
		<path class="st0" d="M174.7,245h183.5c-1,30.5-12.7,55.5-37.3,73.1c-31.5,22.7-65.5,24.9-99.4,6.1
			C191.1,307.3,176.5,280.1,174.7,245z"/>
		<path class="st0" d="M599.5,9.9v222.3L488.3,121L599.5,9.9z"/>
		<path class="st0" d="M672.4,84.3c-6.6,0-12.5-0.1-18.3,0c-2.8,0.1-4-0.6-3.9-3.7c0.2-6.4,0.1-12.7,0.1-19.4h67.8
			c0,7.1,0.1,14.1-0.1,21.1c0,0.7-1.8,1.9-2.7,1.9c-4.9,0.2-9.7,0.1-14.6,0.1c-1.3,0-2.7,0.1-4.5,0.2v151.4h-23.7V84.3z"/>
		<path class="st0" d="M619.1,60.9c7.7,0,14.6-0.1,21.6,0.1c0.8,0,1.7,1.3,2.1,2.2c0.2,0.8,0.2,1.7,0.1,2.6v165.3c0,5,0,5-5.1,5
			s-10.3-0.1-15.4,0c-2.7,0.1-3.4-0.9-3.4-3.5c0.1-9.7,0-19.5,0-29.2L619.1,60.9L619.1,60.9z"/>
		<rect x="174.7" y="51.6" class="st1" width="183.5" height="183.5"/>
	</g>
</g>
</svg>
